<svg width="170" height="48" viewBox="0 0 170 48" fill="none" xmlns="http://www.w3.org/2000/svg">
<path d="M5.284 3.85958e-05C7.54822 3.85958e-05 9.55173 1.4663 10.2365 3.6245L20.4295 35.7508C20.4689 35.8751 20.5843 35.9596 20.7147 35.9596C20.8451 35.9596 20.9605 35.8752 21 35.751L31.2163 3.61594C31.9009 1.46259 33.9006 3.85958e-05 36.1601 3.85958e-05C39.7215 3.85958e-05 42.2238 3.50643 41.0659 6.87433L29.2481 41.2471C27.9969 44.8864 24.5731 47.3298 20.7247 47.3298C16.8778 47.3298 13.4549 44.8882 12.2026 41.2509L0.371259 6.88726C-0.790261 3.51367 1.71606 3.85958e-05 5.284 3.85958e-05Z" fill="white"/>
<path d="M41.4044 43.8564C40.7324 45.9274 38.803 47.3298 36.6257 47.3298C33.1758 47.3298 30.7524 43.9324 31.8755 40.6704L43.7853 6.07898C45.0377 2.44162 48.4605 3.85958e-05 52.3075 3.85958e-05C56.1558 3.85958e-05 59.5796 2.44343 60.8309 6.08269L72.723 40.6718C73.8445 43.9338 71.4209 47.3298 67.9716 47.3298C65.7931 47.3298 63.8628 45.9259 63.1916 43.8533L52.5502 10.9911C52.5163 10.8865 52.4188 10.8156 52.3089 10.8156C52.199 10.8156 52.1016 10.8864 52.0676 10.991L41.4044 43.8564ZM39.609 32.6317C39.609 30.4747 41.3576 28.7261 43.5146 28.7261H60.965C63.122 28.7261 64.8706 30.4747 64.8706 32.6317C64.8706 34.7887 63.122 36.5373 60.965 36.5373H43.5146C41.3576 36.5373 39.609 34.7887 39.609 32.6317Z" fill="white"/>
<path d="M101.798 4.99008C101.798 2.23413 104.032 0 106.788 0C109.544 0 111.779 2.23414 111.779 4.99008V30.7366C111.779 34.1878 110.956 37.2075 109.312 39.7959C107.684 42.3842 105.402 44.4025 102.467 45.8507C99.5319 47.2836 96.113 48 92.21 48C88.2917 48 84.8651 47.2836 81.9302 45.8507C78.9953 44.4025 76.7135 42.3842 75.0847 39.7959C73.4559 37.2075 72.6415 34.1878 72.6415 30.7366V4.99008C72.6415 2.23414 74.8756 0 77.6316 0C80.3875 0 82.6217 2.23414 82.6217 4.99008V29.8816C82.6217 31.6842 83.0135 33.2865 83.7972 34.6885C84.5962 36.0905 85.7179 37.1921 87.1623 37.9933C88.6067 38.7944 90.2893 39.195 92.21 39.195C94.1461 39.195 95.8287 38.7944 97.2577 37.9933C98.7021 37.1921 99.8161 36.0905 100.6 34.6885C101.399 33.2865 101.798 31.6842 101.798 29.8816V4.99008Z" fill="white"/>
<path d="M128.929 47.3298C120.585 47.3298 113.821 40.5655 113.821 32.2213V4.99013C113.821 2.23418 116.055 3.85958e-05 118.811 3.85958e-05C121.567 3.85958e-05 123.801 2.23417 123.801 4.99012V28.961C123.801 34.5492 128.331 39.0794 133.919 39.0794H139.913C142.191 39.0794 144.038 40.9263 144.038 43.2046C144.038 45.4829 142.191 47.3298 139.913 47.3298H128.929Z" fill="white"/>
<path d="M135.357 8.25039C133.079 8.25039 131.232 6.40349 131.232 4.12522C131.232 1.84694 133.079 3.85716e-05 135.357 3.85716e-05H165.875C168.153 3.85716e-05 170 1.84694 170 4.12522C170 6.40349 168.153 8.25039 165.875 8.25039H162.774C158.783 8.25039 155.548 11.4855 155.548 15.4762V42.3973C155.548 45.1214 153.34 47.3298 150.616 47.3298C147.892 47.3298 145.683 45.1215 145.683 42.3973V15.4762C145.683 11.4855 142.448 8.25039 138.458 8.25039H135.357Z" fill="white"/>
</svg>
